<svg version="1" xmlns="http://www.w3.org/2000/svg" width="742.667" height="742.667" viewBox="0 0 557.000000 557.000000"><path d="M86 5.1c-3.6 2.8-7.4 6-8.5 7.1-1.1 1.2-.2.8 2-.9 2.2-1.7 6.7-4.9 9.9-7.2 3.3-2.2 5.3-4.1 4.5-4-.8 0-4.3 2.3-7.9 5zM101 2.4c-1.9 1.3-5.6 5-8.2 8.2-2.6 3.3-6.3 7.7-8.3 9.9-1.9 2.2-4.7 5.9-6.2 8.2-1.5 2.4-2.8 4.1-3 3.9-.2-.2.5-2.4 1.6-5 4.7-10.7-3.2-.8-8.5 10.9-4.1 9-13.6 17.8-18.6 17.2-1.9-.2-2.4.3-2.6 3.1-.2 1.8-.8 3-1.3 2.7-.5-.4-.9-.1-.9.5 0 3.7-13.5 16-15.6 14.2-.4-.4-.4-.1 0 .5.4.8.1 1.3-.9 1.3s-1.3.5-.9 1.2.3.8-.5.4c-1.4-.9-4 1.1-5.1 3.9-.7 1.8-4 3.2-4 1.7 0-.9 9.8-16.8 15.4-24.9 5.8-8.4 23-28.3 31.2-36.1 2.5-2.3 4.1-4.2 3.6-4.2-.5 0-5.9 5.1-11.9 11.3-23.2 24-39.5 48.7-48.7 74-1.9 5.1-4.3 11.2-5.5 13.7-1.1 2.5-2.1 6-2.1 7.9 0 3.3.1 3.2 3.1-2.5 7.3-13.8 19.8-29.1 31.7-38.6 11.4-9.3 11.3-8.9-.9 7.8-10.2 13.8-16.8 24.8-22 36.4-4.4 9.9-6.7 17-5.5 17 .2 0 3-5.1 6.2-11.3 8.3-16.5 19.7-36.4 24.3-42.6 4.2-5.6 5.1-6.1 2.7-1.3-6.6 13-18.8 60-22.1 85.1-1.7 13.3-3 34.8-2 33.9.4-.4 1.6-7.1 2.6-15 2.2-17.8 3-21.8 3.9-21.8.4 0 .6 2.4.4 5.2-.3 4.4-.1 4 .9-2.2 1.3-7.4 1.1-11.1-.4-7.4-.4 1-.8 1.3-.8.6-.1-.7.6-2.4 1.5-3.7.8-1.3 1.4-3.2 1.3-4.2-.8-5.1 7.7-41.7 9.4-40.6.6.3.7.1.3-.6-.4-.6-.4-2.5-.1-4.3.6-2.3.9-2.7 1.7-1.7.7 1 .8.8.4-.7-.7-2.4 1.7-9.6 6.7-20.6 3.5-7.7 7.8-14.7 6.2-10.3-.3 1.1-2.4 10.1-4.5 20-4.3 19.9-5.9 33.8-4.1 34.9.7.5 1.1-.9 1.1-4.3 0-2.8.4-5.1.9-5.1.4 0 .7-1.8.5-4-.2-2.3 0-3.9.4-3.6.4.2.8-1.4.9-3.6 0-2.3.6-4.4 1.2-4.8.6-.3 1.6-4.2 2.1-8.6.9-7.5 3.7-19 4.5-18.2.2.2.5 2.8.6 5.8.4 12.3 6.1 40.9 11.3 57.2 2.1 6.8 5.4 19 6.1 22.8 1.5 8.2 5 17.3 7.6 20l2.8 2.7-.5-3.6-.4-3.6 3.6 5c2 2.7 4.3 6.5 5.2 8.2.9 1.8 2 3.3 2.4 3.3.5 0 .6.4.3 1-.3.5-.1 1 .6 1s1 .3.6.6c-.6.6 2.4 6.9 7.2 15.1 1 1.8 2.1 2.9 2.5 2.6.4-.4.5-.1.1.7-.5 1.4 9.6 20.6 18.8 35.6 4.7 7.8 8.7 16.5 17.7 39 4 9.8 8.1 19.7 9.2 21.8l2 3.9-3.7 7.5c-2 4.1-3.5 7.6-3.3 7.8.2.1 1.9-2.6 3.8-6.2 1.9-3.5 3.7-6.4 4-6.4.3 0 1.3 2.1 2.4 4.6 1 2.5 2 4.3 2.2 4.1.2-.2-.6-2.6-1.7-5.4l-2.2-5 2.7-4.6c1.5-2.5 5.7-7.8 9.3-11.6 3.5-3.9 6.1-7.1 5.5-7.1-1.3 0-11.3 10.7-15.1 16.4-2.7 3.9-3.6 4.5-4.2 3.3-3.1-5.4-14-36-15.5-43.4-.2-1.2-1.8-5.7-3.4-9.9-2.7-7.1-2.8-7.5-.8-5.8 2 1.8 2 1.6-.2-1.6-1.3-1.9-4.3-6-6.6-9-2.4-3-7.4-11.4-11.2-18.6-3.8-7.2-8.7-15.6-11-18.5-6.3-8.5-13.2-20.5-15.3-26.7-2.2-6.3-14.5-37.8-15.8-40.2-.4-.8-1.4-4-2.1-7-.7-3-1.9-6.4-2.6-7.5-2.2-3.6-9.5-43.5-9.4-51.9 0-1.2 1.4.6 3.3 4.4 4.7 9.1 11.7 21 14.5 24.5.4.5 3.1 4.1 6 8 6.1 8.2 7.8 10.2 23.7 28.9 22.3 26.4 37.4 41.5 68.5 68.8 8 6.9 21 18.3 29 25.3 13.7 12.1 35.7 29.8 44.5 35.9l4 2.8-3.4-2.9c-1.9-1.5-9.4-7.5-16.7-13.3-23.8-18.9-54.1-47.7-56.7-54-.6-1.4-2-3.6-3.1-4.9-2.4-2.7-2.5-2.8 6.6 2.7l6.6 4.1-.9-3.1c-.5-1.8-1.4-3.6-2-4.2-.9-.8-1-.7-.4.2 1.9 3.4-25.2-12.5-29.3-17.2-1.5-1.7-4.1-4.2-5.8-5.6-14.5-11.7-18.5-15.1-24.8-20.7-8.4-7.5-19-19.6-21.1-23.8l-1.5-3 2.6 3c1.9 2.2 2.3 2.4 1.5.7-.7-1.2-2.3-2.9-3.7-3.9-1.8-1.1-2.4-2.2-2-3.6.4-1.5.2-1.7-.7-.8-1.6 1.6-2.7 1.4-2.1-.4.5-1.1.2-1.3-1-.9-.9.4-1.6.3-1.4-.2.3-1.2-2.5-7.4-3.4-7.4-.5 0-.8-.5-.8-1.1 0-.6-1.4-2.8-3.1-4.8-2.9-3.4-11.2-16.9-19.2-31.3l-3.8-6.6 12.5 12.1c6.8 6.7 13.9 13 15.7 14.1 2 1-2.8-4.2-11.1-12.3L62.5 77.9 75 87.6c11.8 9.2 21 15.6 30.9 21.8 7.9 5 3.2.8-8.8-7.8C86.5 93.9 70 81.3 67.5 78.8c-.9-.8 27.9 13.1 34.5 16.7 2.6 1.4 8.6 3.8 19.9 8.1 7.5 2.8 6.8.8-.9-2.7-2.7-1.2-4.6-2.7-4.3-3.2.3-.6.1-.7-.5-.3-1.2.7-6.2-1.3-6.2-2.6 0-.4-.7-.8-1.6-.8-.9 0-1.2-.5-.8-1.2.5-.8.2-.9-.9-.5-1 .4-1.7.1-1.7-.6-.1-.7-3.9-3-8.5-5.1-4.7-2.2-8.5-4.3-8.5-4.8s-.4-.7-.8-.4c-.5.3-3.3-1-6.3-2.8-3-1.8-6.8-3.8-8.5-4.4-2.3-1-.5-1.1 9.1-.6 6.6.3 13.5.8 15.3 1.1 1.8.3 3.2.1 3.2-.5 0-1.1-13-2.8-28.8-3.8-9.4-.6-11.6-1.1-8-1.8.7-.2 2-.6 2.8-.9 4.5-1.7 13-4.7 13.3-4.6.4.2 9.2-2.3 10.2-2.9 3.2-2 20.5-4.3 39.6-5.2 18.8-.9 31.1-2.4 25.7-3-2.8-.4-3.2-.5-4.4-1.2-.6-.4-5.2-.9-10.2-1.2-5-.2-9.6-.7-10.3-1.1-.7-.5-1-.4-.6.2.4.5-2.8 1-8.1 1.1-12.5.3-38.8 4.9-41.8 7.3-.6.5-4.3 2.2-8.2 3.8l-7.1 3 2.7-4.9c1.5-2.6 3.1-4.6 3.7-4.2.5.3.7.2.3-.3-.9-.9 7.9-14 12.1-17.9 1.7-1.7 3.1-2.7 3.1-2.3 0 .3 1.1-.5 2.4-1.8 1.3-1.3 4.1-2.9 6.2-3.6 5.3-1.6 35.2-2.6 49.9-1.7 24.4 1.6 60.7 8 79.3 13.9 27.4 8.7 61.5 25.1 90.5 43.4 4 2.5 5.9 3.4 4.2 2-5.4-4.5-37.7-23.3-50.5-29.3-29.9-14.2-72.6-28.9-88.7-30.8-3.5-.3-6.3-1.1-6.3-1.7 0-.6-1.7-.7-4.5-.4-2.5.4-4.7.2-5-.3-.4-.6-1.8-.7-3.2-.4-1.6.4-2.9.2-3.5-.7-.7-1.1-1.1-1.1-1.5-.2-.3.8-2.2 1.3-5.1 1.2-4.6-.2-4.6-.2-1.2-.9l3.5-.7-3-.3c-1.6-.1-3.4-.1-4 0-4.3 1-30.9 3.2-33.5 2.7-1.9-.3-1.6-.5 1.2-.6 2 0 3.9-.5 4.3-1.1.3-.5-1.4-.7-4.5-.3-4.4.5-5 .4-4.4-1.1.3-.9 1.1-1.6 1.8-1.5.6.1 2-.1 3.1-.5 4.6-1.8 7.4-2.5 14.5-3.7 4.1-.6 7.9-1.6 8.5-2.1.5-.4 2.2-.8 3.7-.8s2.8-.4 2.8-.9c0-.4 1.1-.6 2.5-.3 1.4.2 3.1-.1 3.9-.7.9-.7 1.7-.8 2-.2.3.5.3 1.1-.1 1.4-.5.2-.2.2.5 0 .8-.1 2.5-.3 3.8-.3 1.3 0 3.3-.9 4.3-1.9 3.3-3.3 12.2-4.3 25.7-3 16 1.4 19 2.1 35.5 7.5 16.7 5.4 23.3 8.2 47.1 19.8l17.7 8.7 9.7-3.7c14.6-5.4 24.8-11.7 35.9-21.9 6-5.5 4.1-4.8-3.3 1.2-6.4 5.2-25.7 14.7-34.4 17-8 2-14.1.9-28.2-5l-9.9-4.2 9.4-.6c11.6-.8 24.7-3.2 31.7-5.9 5.6-2.1 19.2-8.8 19.2-9.4 0-.2-3.8 1.2-8.4 3.1-11.5 4.6-25.2 7.4-35.7 7.4-9.8 0-12.5-.3-26.4-3.8-12-2.9-13.8-3.8-8.5-4 5-.2 6.2-1 5.5-3.4-.5-1.5-.1-1.9 1.7-2 2.7-.1 3.9-.3 13.5-2.4 4-.9 7.9-2.2 8.6-2.9.7-.7 1.9-1.5 2.7-1.9.8-.3-35.9-.6-81.5-.6l-83-.1-3.5 2.4zm6 19.6c0 .5-.5 1-1.1 1-.5 0-.7-.5-.4-1 .3-.6.8-1 1.1-1 .2 0 .4.4.4 1zm1.7 2.6c-.3.3-1.2.4-1.9.1-.8-.3-.5-.6.6-.6 1.1-.1 1.7.2 1.3.5zm-7.4 1.1c-.7.2-1.9.2-2.5 0-.7-.3-.2-.5 1.2-.5s1.9.2 1.3.5zm-37 22.8c-.3.9-.8 1.4-1 1.1-.3-.3-.2-.9.2-1.5.9-1.6 1.5-1.3.8.4zM19 88.5c1.1 1.3 1 1.4-.2 1-1-.4-1.9.4-2.8 2.5-.7 1.7-1.5 2.9-1.7 2.7-.3-.4 2.8-7.7 3.3-7.7.1 0 .7.7 1.4 1.5zm5 .9c0 .2-.8 1-1.7 1.7-1.6 1.3-1.7 1.2-.4-.4 1.3-1.6 2.1-2.1 2.1-1.3zm-6 5c0 .2-.8 1-1.7 1.7-1.6 1.3-1.7 1.2-.4-.4 1.3-1.6 2.1-2.1 2.1-1.3zm-3.6 3.2c.3.8.2 1.2-.3.9-.5-.3-1.3.4-1.6 1.6-.4 1.1-.9 1.8-1.1 1.6-.4-.4 1.6-5.7 2.2-5.7.1 0 .5.7.8 1.6zM142 184.5c1.3 1.4 2.1 2.5 1.8 2.5-.2 0-1.5-1.1-2.8-2.5-1.3-1.4-2.1-2.5-1.8-2.5.2 0 1.5 1.1 2.8 2.5zm13 12c1.3 1.4 2.1 2.5 1.8 2.5-.2 0-1.5-1.1-2.8-2.5-1.3-1.4-2.1-2.5-1.8-2.5.2 0 1.5 1.1 2.8 2.5zM102.5 221c-.3.5-.1 1 .6 1s1 .3.6.6c-.9.9-2.8-.6-2.2-1.7.4-.5.8-.9 1.1-.9.3 0 .2.4-.1 1zm7.5 12.3c2.3 4.3 4 8 3.8 8.2-.2.2-2.6-3.7-5.2-8.8-2.7-5.1-4.4-8.8-3.8-8.2.6.5 2.9 4.5 5.2 8.8zM411.8 4.2c1.7 2.5 7 12.2 11.8 21.4 9.4 18.5 10.5 18.7 1.5.4-3.1-6.3-5.5-12.1-5.4-12.7 0-.7-.3-1.1-.7-.8-.4.2-2.4-2.2-4.4-5.5-2-3.3-4.2-6.2-4.8-6.6-.6-.4.3 1.3 2 3.8zM429.7 4.8c7 5.8 9.6 7.5 7.2 4.6-.9-1-2.2-3.6-2.9-5.7-.8-2.6-1.7-3.7-3.1-3.7-1.1 0-1.9.7-1.9 1.7 0 1.5-.1 1.5-1.8 0-1-1-2.2-1.7-2.6-1.7-.4 0 1.9 2.2 5.1 4.8zM402.5 5.7c2.2 5.8 4.5 16.6 4 18.4-.5 1.6-.4 1.9.5 1.4 1-.6 1.2-.1.8 1.9-.3 1.4-.1 2.9.4 3.2.4.3.6.9.4 1.2-.2.4.2 3.7 1 7.2 2.4 10.3 3 38.9 1 48-4.5 21.6-7.2 31.2-11.2 39.1-2.3 4.6-2.3 4.7-.4 6.4 2.3 2.1 2.2 2.1 4.5-2.4 7-13.8 9.8-30.1 9.8-57.6 0-18.3-.4-23-2.7-36.5-2.5-14.7-7-32-8.2-32-.4 0-.3.8.1 1.7z"/><path d="M161.5 10c-.4.6.3 1 1.4 1 2.5 0 2.7-.6.6-1.3-.8-.4-1.7-.2-2 .3zM160 13.1c0 .5.5.7 1 .4.6-.3 1-.8 1-1.1 0-.2-.4-.4-1-.4-.5 0-1 .5-1 1.1zM372.5 19.5c-1.5 3.6-3.5 7-4.4 7.5-.9.5-1.2 1-.7 1s.2.8-.6 1.7c-2 2.4-7.9 12.3-7.3 12.3 2 0 17.5-27.4 16.2-28.6-.2-.2-1.6 2.5-3.2 6.1zM71.9 16.7l-2.4 2.8 2.8-2.4c2.5-2.3 3.2-3.1 2.4-3.1-.2 0-1.4 1.2-2.8 2.7zM441 14.4c0 .2.8 1 1.8 1.7 1.5 1.3 1.6 1.2.3-.4s-2.1-2.1-2.1-1.3zM451 21.5c.8 2 .7 2.3-.8 1.8-1.7-.7 5.1 8.1 8.4 10.8 2.7 2.2 28.3 35 35.2 45.2 3.5 5 10 15.3 14.4 22.7 9.6 16.1 12 19 5.3 6.5-8.8-16.4-19.4-33.5-30.8-49.8-6.2-8.9-12.9-18.8-14.8-22-3.6-6.1-4-6.4-5.8-4.3-.9 1.1-.6 1.8 1.5 3.5 1.5 1.2 2.2 2.1 1.7 2.1-2.7 0-13.3-14.2-13.3-17.7 0-.7-.4-1.3-1-1.3s-.6.9 0 2.5zM382.2 27c0 1.9.2 2.7.5 1.7.2-.9.2-2.5 0-3.5-.3-.9-.5-.1-.5 1.8zM140.8 29.7c.7.3 1.6.2 1.9-.1.4-.3-.2-.6-1.3-.5-1.1 0-1.4.3-.6.6z"/><path d="M460 29.9c0 .6.4 1.3 1 1.6.6.3.7-.1.4-.9-.7-1.8-1.4-2.1-1.4-.7zM500 52.5c5 7.4 9.3 13.5 9.6 13.5.7 0 .2-.8-8.9-14.8-4.4-6.7-8.4-12.2-8.9-12.2-.4 0 3.3 6.1 8.2 13.5zM451.4 46.5c.3 1.1 1.2 4.5 2 7.5 6.1 21.6 6.1 56.2 0 86.7-1.3 6.9-2.3 12.7-2.1 13 .2.2 1.6-4.1 3-9.4 8-29.7 8.2-61.7.6-89.3-1.9-6.7-4.8-14-3.5-8.5zM202.2 71.2c-1.7 1.7-1.5 3.7.7 9.4 1 2.7 6.7 17 12.5 31.9 5.8 14.8 12.1 30.9 13.9 35.8l3.2 8.7 6-6c4.4-4.4 5.2-5.7 3.2-4.8-1.5.7-2.7 1.8-2.7 2.5 0 .6-1 1.9-2.2 2.7-2.4 1.7-3.9 2.1-3.6.8.2-.8-1.4-4.7-4.8-11.9-1.3-2.8-2.4-5.5-2.4-5.8 0-.3-.8-2.5-1.9-4.8-1-2.3-5.5-13.9-10-25.7-4.5-11.8-8.8-23-9.6-24.8-1.9-4.2-1.9-7.1.1-7.9 2.4-.9 3.7 1.2 9 13.9 2.6 6.4 5 11.6 5.2 11.4.6-.7-8.9-23-10.5-24.9-1.9-2-4.4-2.2-6.1-.5zM101.8 74.7c.7.3 1.6.2 1.9-.1.4-.3-.2-.6-1.3-.5-1.1 0-1.4.3-.6.6zM107.1 75.4c.2.2 2.7.6 5.4 1 3.4.4 4.3.3 3-.3-1.9-.9-9.3-1.5-8.4-.7z"/><path d="M219 98.5c0 .5.5 1.7 1 2.5s1 1 1 .5c0-.6-.5-1.7-1-2.5s-1-1.1-1-.5zM295.5 106.5c-3.3 3.3-29 29.3-57 57.7-42 42.5-50.6 51.7-48.5 51.7 1.4 0 6.8 1.6 12 3.6 9 3.4 31.7 9.6 35 9.4.8 0-3-1.5-8.5-3.3-14.5-4.7-29.2-10.6-31.8-12.6l-2.2-1.8 9.5-9.9c22.2-23 31.4-32.3 32.1-32.3.4 0 2.8 5.1 5.4 11.2 2.6 6.2 8.7 20.3 13.6 31.3 4.9 11.1 8.9 20.5 8.9 21.1 0 .5 1.5 3.9 3.4 7.4 3.4 6.7 6.5 9 10.1 7.6 1.5-.5 1.7-1.4 1.2-5.1-.6-4.2-.5-4.5 1.6-4.5 1.9 0 1.8-.2-.9-1.6-2.4-1.2-3.5-2.8-5.4-8.1-1.9-5.3-2.1-6.8-1-7.1.9-.3.5-.9-1-1.7-1.7-.9-4.8-6.9-11.6-22.6-5-11.8-9-21.6-8.8-21.8.6-.7 31.4 11.5 58.4 23.1 33.7 14.5 31.7 13.4 24.4 14.2-8.1 1-20.3 4.1-26.3 6.7-6.7 2.8-16.8 13.7-14.2 15.3.5.3 1.4-.8 2.1-2.4 1.9-4.5 9-10.5 15.2-12.8 5.4-2 17-4.4 27-5.6 4.5-.5 5.9 0 21.8 8 9.3 4.6 17 8.9 17 9.4 0 .6-2.4 1-5.2 1.1-2.9 0-4.6.3-3.8.7.9.3-1.4 1.3-5.5 2.3l-7 1.7 8.1-.1c4.5-.1 7.7-.5 7.1-.9-.7-.4-.2-.6 1-.5 1.2 0 2 .4 1.8.7-.2.3 1.8.6 4.3.8 6.2.3 14.7 1 14.7 1.3 0 .1 2.3.5 8 1.2 5.1.6 11.2 5.6 17.8 14.6 3.5 4.7 7.2 9.9 8.3 11.6 1 1.6 3.7 5.5 6 8.5 2.2 3 5.1 8.1 6.4 11.4 2.3 5.7 2.3 5.9.5 7.2-1 .8-2.6 1.4-3.5 1.4-.9 0-4.3.9-7.5 2s-6 2-6.3 2c-.2 0 1.3-2.1 3.4-4.8 6-7.6 6.2-8 .9-3.1-3 2.7-10.8 7.5-19.2 11.9-15.8 8.1-25.5 15.9-32.2 25.9-4.8 7.1-6.7 10.6-5.2 9.7 1.6-1 1.4-.1-1.4 5.4-1.4 2.7-2.5 5.5-2.5 6.2.1.7 1.5-1.3 3.1-4.6 3.5-6.7 4.9-7.1 1.9-.5-1.1 2.4-1.9 6.2-1.9 8.4l.1 4 1.3-4 1.4-4-.6 5.2c-.3 2.9-.3 5.3.1 5.3s2.2-3.4 4.1-7.5c6.1-13.4 13-21.6 24.8-29.2 13.7-9 25.2-13 38.6-13.5l7.4-.3 1.4 6c5.2 22.5 9 51.8 10.2 76.9l.7 15.1.9-12c2.2-26.9.4-85.1-3-100-.7-3.3-1.9-8.9-2.5-12.5-.6-3.6-1.4-7.3-1.7-8.4-.4-1.4-.2-1.6.8-1.1 1.2.7-1.5-3.1-3.2-4.5-.3-.3-.8-1-1-1.7-.8-2.2-34.2-31.5-47.5-41.4-13.4-10.2-16.5-12.2-36-24-16.1-9.8-49.4-27.6-49.4-26.5 0 .2 4.2 2.8 9.2 5.7 11.2 6.3 28.8 17.3 42.3 26.4 9.8 6.6 9.9 6.7 5.8 6.1-2.4-.3-8.4-.9-13.5-1.2-8.4-.5-10.7-1.2-23.4-6.4-26.9-11.2-60-24.1-71.5-28-6.4-2.1-12.6-4.3-13.8-5-2.1-1.1-6.1-8.6-6.1-11.4 0-1.6 2.9-4.7 32.3-34.4 14.4-14.4 25.7-26.1 25.2-26.1-.6.1-3.7 3-7 6.4zM247 169.2c2.8 7.3 23.1 55.3 28.1 66.5 1.1 2.3 1.9 5.7 1.9 7.5v3.3l-1.5-3c-.7-1.7-3.2-7.5-5.5-13s-5.5-12.8-7.1-16.3c-1.6-3.5-2.9-6.5-2.9-6.8 0-.2-3-6.6-6.6-14.1-13.2-27.5-13.5-28.2-12.1-30.3.6-1.1 1.5-2 1.9-2 .3 0 2.1 3.7 3.8 8.2zm118.5 44.2c3.3.2 7.6.5 9.7.5 3 .1 6.3 2.2 20.5 12.7 19.3 14.5 17.8 13.3 17.2 13.8-.2.2-3.8-1.5-7.9-3.8-7.9-4.4-39.9-19.4-46.2-21.7-4.1-1.4-5.2-3.3-1.5-2.4 1.2.3 4.9.7 8.2.9zm19.8 21.3c-.7.2-1.9.2-2.5 0-.7-.3-.2-.5 1.2-.5s1.9.2 1.3.5zm4.4-.1c-.3.3-1.2.4-1.9.1-.8-.3-.5-.6.6-.6 1.1-.1 1.7.2 1.3.5zm9.2 1.3c1 .6-.1.8-3 .4-2.4-.3-4.6-.7-4.8-.9-1-.9 6.5-.3 7.8.5zm42.7 35.3c3 4.2 5.4 8 5.4 8.5 0 1.7 4.7 7.3 5.5 6.5.5-.4.5.1.2 1-.4 1-.3 1.8.2 1.8 1.2 0 3 6.8 3.5 14 .4 4.4.2 6-.4 5-.6-1-1 5.1-1.1 18-.1 10.7-.4 18.1-.6 16.5-.5-3.8-4.7-24.9-6.8-34.6-.9-4.1-2.3-8.8-3.1-10.6-1.8-4.1-1.8-4 1.4-6.8 2.5-2.2 2.6-2.4.4-1.8-1.2.3-2.5 1-2.8 1.5-.4.5-3.3-5.9-6.5-14.3-3.3-8.4-6.8-16.8-7.9-18.7-1.1-1.8-2-3.6-2-3.8 0-1.1 9.2 10.2 14.6 17.8zm1.3 26c.1.4-1.9.7-4.4.6-2.5 0-4.5-.2-4.5-.4s1.7-1.2 3.8-2.3c3.4-1.8 3.8-1.8 4.4-.3.4 1 .7 2 .7 2.4zM373 335.1c-.7 1.1-1.4 1.8-1.7 1.5-.3-.3 0-1.2.7-2.1 1.8-2.1 2.3-1.9 1 .6zM223 108.5c0 .5.5 1.7 1 2.5s1 1 1 .5c0-.6-.5-1.7-1-2.5s-1-1.1-1-.5zM377 118.5c5.2 5.5 9.6 10.2 9.9 10.5.2.3-.1-.4-.7-1.5s-5-5.8-9.9-10.5l-8.8-8.5 9.5 10zM450.1 112.6c0 1.1.3 1.4.6.6.3-.7.2-1.6-.1-1.9-.3-.4-.6.2-.5 1.3zM504.4 114.5c1.7 6.8 4.8 27.5 5.8 38.9 1.7 20.1-1.3 44.3-8.4 66.5-3.2 10.2-11.7 28.8-14.3 31.4-1.4 1.5-1.3 1.7.7 2.8 1.3.6 4.6 3.2 7.3 5.8l5 4.6-4.6-4.9-4.7-4.9 3.1-5.1c7-11.8 10.1-20.2 14.1-38.6 5.9-27.1 5.5-60.2-1.1-88.3-1.3-5.9-2.7-10.7-3-10.7-.3 0-.2 1.1.1 2.5zM29.1 116.6c0 1.1.3 1.4.6.6.3-.7.2-1.6-.1-1.9-.3-.4-.6.2-.5 1.3zM226 115.5c0 .5.5 1.7 1 2.5s1 1 1 .5c0-.6-.5-1.7-1-2.5s-1-1.1-1-.5zM359 118.5c1.3 1.4 2.6 2.5 2.8 2.5.3 0-.5-1.1-1.8-2.5s-2.6-2.5-2.8-2.5c-.3 0 .5 1.1 1.8 2.5zM228 120.5c0 .5.5 1.7 1 2.5s1 1 1 .5c0-.6-.5-1.7-1-2.5s-1-1.1-1-.5zM451.3 128.5c0 4.4.2 6.1.4 3.7.2-2.3.2-5.9 0-8-.2-2-.4-.1-.4 4.3zM367.5 126c2.1 2.2 4.1 4 4.4 4 .3 0-1.3-1.8-3.4-4-2.1-2.2-4.1-4-4.4-4-.3 0 1.3 1.8 3.4 4zM542.1 132c3.4 9.1 8.6 25.9 12.4 40.5 2.3 8.5 2.4 8.7 2.5 4.3 0-5.3-7.2-29.6-12.7-42.8-4.8-11.3-6.2-12.7-2.2-2zM484 135.7c-10.3 24.8-21.6 40.8-34.5 49-4.4 2.7-6.4 5.4-2.6 3.3 2.8-1.5 4.9-1.4 3.3.2-1.9 1.9-1.4 3.3.6 1.5 1-1 2.4-1.7 3-1.7 1.7 0 12.3-10.8 16.1-16.3 4.5-6.7 13.4-26.6 15.9-35.7 1.1-4.1 1.9-7.6 1.7-7.8-.1-.2-1.7 3.2-3.5 7.5zM391.7 134.5c1.7 2.2 4.6 5.3 6.4 7 1.9 1.6 2.6 2 1.6.8-1.5-1.7-1.6-2.5-.7-4.3.9-1.8.8-2.5-.6-4.1-2.1-2.3-3.4-2.4-3.4-.4 0 2.1-.9 1.9-3.9-.8-2-1.8-1.9-1.5.6 1.8zM389.5 147c5.5 5.5 10.2 10 10.5 10 .2 0-4-4.5-9.5-10s-10.2-10-10.5-10c-.2 0 4 4.5 9.5 10zM364 138.3c0 .1 3.5 3.6 7.8 7.7l7.7 7.5-7.5-7.8c-6.9-7.1-8-8.2-8-7.4zM39.8 141.7c-.2 1-.1 3.1.3 4.8.6 2.6.7 2.3.8-1.8.1-4.8-.3-6.1-1.1-3zM402.5 147c1 1.1 2 2 2.3 2 .3 0-.3-.9-1.3-2s-2-2-2.3-2c-.3 0 .3.9 1.3 2zM531.1 147.6c-.1.5 1 4.1 2.3 8 1.4 3.8 2.5 6.4 2.5 5.8.1-.5-1-4.1-2.3-8-1.4-3.8-2.5-6.4-2.5-5.8zM406.5 152c1 1.1 2 2 2.3 2 .3 0-.3-.9-1.3-2s-2-2-2.3-2c-.3 0 .3.9 1.3 2zM409 155.4c0 .2.8 1 1.8 1.7 1.5 1.3 1.6 1.2.3-.4s-2.1-2.1-2.1-1.3zM387.5 162c1.1 1.4 4.3 5.1 7.1 8.2 2.9 3.1 10.6 13.3 17.3 22.6 6.7 9.4 12.9 17.3 13.8 17.6 2.7 1.1 3.8-1 1.9-3.8-2.4-3.8-1.9-4.3 1.3-1.2 1.7 1.6 3.1 2.3 3.5 1.8.4-.6.2-1.3-.4-1.7-.5-.3-1-1.1-1-1.7 0-.6.7-.5 1.8.3.9.7.6.1-.8-1.5-3.5-3.9-47-43.6-44.5-40.6zm34.9 32.9c-.3.3-3-2.1-6.2-5.4l-5.7-5.8 6.2 5.4c3.4 3 5.9 5.6 5.7 5.8zM371 164.4c0 .2.8 1 1.8 1.7 1.5 1.3 1.6 1.2.3-.4s-2.1-2.1-2.1-1.3zM388.5 181c17.8 18.7 21.3 22 11.8 11.5-4.5-5-11.9-12.6-16.4-17-4.7-4.5-2.7-2.1 4.6 5.5zM442.6 174.7c-.6 1.4-.5 1.5.5.6.7-.7 1-1.5.7-1.8-.3-.3-.9.2-1.2 1.2zM426.7 180.1c1 1.7 2.4 3.6 3.2 4.2.8.7.2-.7-1.4-3.1-3.2-4.9-4.5-5.7-1.8-1.1zM440.6 178.7c-.6 1.4-.5 1.5.5.6.7-.7 1-1.5.7-1.8-.3-.3-.9.2-1.2 1.2zM21.1 186c-.2.3-1 6.8-1.7 14.5-1.5 16.4-2.3 21.6-3.5 23.1-.5.6-1.4 8.3-1.9 17-.6 8.7-1.2 18.4-1.5 21.4-.8 8.9-2.3 41.4-1.9 42.1.2.3.4 6.1.5 12.7.1 6.7.6 12.2 1.1 12.2.4 0 .8-.8.9-1.8.1-1.1.4-.9.9.8.6 1.8.8 2 .9.7.1-1 .5-1.5 1.1-1.2.6.3.7-.1.4-1-.5-1.1-.2-1.4 1.2-.8 1.1.4 1.5.3 1.1-.4-.4-.6-.3-2.2.2-3.5.7-1.8 1-.5 1.5 5.7.7 8.3 6.2 46.6 9.6 66 2 11.3 2.7 22.9.9 13.6-.5-2.4-1-4.5-1.2-4.7-.2-.2-1.3.5-2.4 1.6-1.5 1.4-2.3 1.6-2.6.7-.3-.7-.6-.3-.7.8l-.1 2-1-2c-.7-1.4-.8-.6-.4 2.9.3 2.7.3 4.8.1 4.5-.8-.7-6.5-26.1-8.5-37.9-4.1-23-6.9-56.1-7.7-91.5-.4-14.3-1-26.4-1.5-26.9-.6-.6-.9-.6-.9.1 0 .6-.9 1.3-2 1.6-2 .5-2 1.3-2 41.4.1 32.9.3 41.1 1.4 42.6 1.1 1.4 1.5 1.5 1.9.5.4-1 .6-1 .6-.1.1.7.6 1.3 1.1 1.3.6 0 1-2.4 1.1-5.3.1-3.5.5-1.4 1.5 6.8 2.4 21.7 4.5 36.8 7 50.6 2.7 15.3 2.8 16.1 1.3 13.6-1.4-2.5-3.2-1.1-1.8 1.4 1 1.9.9 1.9-1 .9-2.4-1.2-2.7-.8-.8 1.2 1.1 1.1 1.1 1.6.2 2.5-1.3 1.2-3.9-4.5-10.1-21.7-1.3-3.6-2.4-5.5-2.4-4.3 0 4.1 16.9 46.4 25 62.5 7.7 15.2 13.5 24.1 28.8 44 9.1 11.8 10.7 13.2 3.3 2.8-6.3-8.9-15.8-26-14.4-26 .4 0 2.1 2.4 3.6 5.4C50.8 487 62.6 499 66.6 499c.4 0-1.3-1.3-3.8-2.9-6.3-4-9.1-8.1-13.2-19.4-7.4-20.4-11.2-37.3-13.6-60.2-.6-5.5-1.3-11.6-1.6-13.5-.4-3-.2-2.8 1.4 1.5 2 5.2 4.9 11.6 8.2 17.5 1 1.9 3.3 6.6 5 10.4 1.7 3.8 5.2 10.6 7.9 15 2.6 4.5 7.2 12.1 10.1 17.1 2.9 4.9 8.1 12.6 11.5 17 8.7 11.2 26.1 27.6 35 33.1 4.4 2.7 2.8 1.2-4.5-4.2-14-10.3-31.4-29.9-41.1-46.5-6.7-11.6-15.5-29.7-20.8-43.3-2.8-7.1-5.1-13.1-5.1-13.4 0-.2.9.6 2 1.9 1.8 2.2 1.8 1.8-.4-3.1-1.3-3-2.6-6.3-3-7.3-.3-1-1-1.5-1.6-1.2-.5.3-1-.2-1-1.2 0-1.2-.3-1.4-.8-.6-.5.7-1.5-2.1-2.6-7-1-4.5-2.8-12.7-4.1-18.2-2.4-10.1-6-30.8-7-40l-.5-5 1.5 3.5c1.2 2.8 1.4 2.9 1 .8-.3-1.4 0-2.8.6-3 .6-.2 1.6-3 2.3-6.2l1.1-5.9 2.4 9.7c1.3 5.4 2.5 9.5 2.8 9.3.2-.3-.5-5.3-1.6-11.1-2.5-12.8-2.5-12.7-.6-12 1.1.5 1.5-.1 1.5-1.8 0-1.3.5-2.9 1.1-3.5 1.3-1.3 5.9-12.2 5.9-14.1 0-.7.5-2 1.1-3 .9-1.4.5-4-1.6-11.7-2.8-10.4-8-27.5-9.4-31-.5-1.1-1.6-4.7-2.6-8-3.3-11.2-4.8-16-5.6-18-.5-1.1-1-9.2-1.2-18-.1-8.8-.4-15.8-.6-15.5zm1.6 41.2c-.3.8-.6.5-.6-.6-.1-1.1.2-1.7.5-1.3.3.3.4 1.2.1 1.9zm6 86c-.3.8-.6.5-.6-.6-.1-1.1.2-1.7.5-1.3.3.3.4 1.2.1 1.9zm9 89c-.3.8-.6.5-.6-.6-.1-1.1.2-1.7.5-1.3.3.3.4 1.2.1 1.9zM434.9 192.5c.5 1.1 1.7 2.9 2.6 4l1.6 2-1-2c-.5-1.1-1.7-2.9-2.6-4l-1.6-2 1 2zM544.2 196c0 1.4.2 1.9.5 1.2.2-.6.2-1.8 0-2.5-.3-.6-.5-.1-.5 1.3zM545.1 201.6c0 1.1.3 1.4.6.6.3-.7.2-1.6-.1-1.9-.3-.4-.6.2-.5 1.3zM408 202.3c0 .2 1.5 1.6 3.3 3.3l3.2 2.9-2.9-3.3c-2.8-3-3.6-3.7-3.6-2.9zM50.1 205.8c-.2 2.9 5.2 21.8 9.5 33.4 7.3 19.7 8.8 20.7 2.4 1.7-2.3-6.6-3.8-12.5-3.4-13.1.5-.7.2-.8-.6-.3-1 .6-1.2.3-.8-1.3.3-1.2.2-2.2-.2-2.4-.4-.2-2.1-4.6-3.8-9.8-1.7-5.2-3.1-8.9-3.1-8.2zM435 206.3c0 .2 1.5 1.6 3.3 3.3l3.2 2.9-2.9-3.3c-2.8-3-3.6-3.7-3.6-2.9zM415.5 211c1 1.1 2 2 2.3 2 .3 0-.3-.9-1.3-2s-2-2-2.3-2c-.3 0 .3.9 1.3 2zM547.3 214.5c0 2.2.2 3 .4 1.7.2-1.2.2-3 0-4-.3-.9-.5.1-.4 2.3zM419 215.4c0 .2.8 1 1.8 1.7 1.5 1.3 1.6 1.2.3-.4s-2.1-2.1-2.1-1.3zM548.3 224c0 2.5.2 3.5.4 2.2.2-1.2.2-3.2 0-4.5-.2-1.2-.4-.2-.4 2.3z"/><path d="M408 225.5c1.9 1.9 3.6 3.5 3.9 3.5.3 0-1-1.6-2.9-3.5s-3.6-3.5-3.9-3.5c-.3 0 1 1.6 2.9 3.5zM239.8 229.7c.7.3 1.6.2 1.9-.1.4-.3-.2-.6-1.3-.5-1.1 0-1.4.3-.6.6zM413 230.4c0 .2.8 1 1.8 1.7 1.5 1.3 1.6 1.2.3-.4s-2.1-2.1-2.1-1.3zM548.8 252c-.7 24.7-2 34.2-7.4 55-4.7 18.2-12.9 38-22 53.5-1.8 3.2-2.3 5-1.8 7.1.6 2.5 1.2 1.7 6.5-8.7 3.5-6.9 5.6-12.1 5.2-13.3-.4-1.3-.1-1.6.7-1.1.9.5 1.1.4.6-.3-.4-.7-.3-1.2.2-1.2.4 0 2-2.3 3.4-5l2.6-5-.4 18.7c-.7 28.2-4.1 56.1-8.4 69.1-2.6 7.5-2.7 14.9-.3 15.4 1.4.3 3-2.2 7.1-11.2 6.9-14.7 11.9-27.3 17.2-43 3.5-10.2 4.3-14.1 4.6-21.5l.4-9-5.5 16.4c-4.9 14.8-16.9 42.1-18 41-.2-.3 0-2.2.5-4.4s1.6-10.5 2.5-18.5c1.6-14.6 5.5-46 10-80 3.5-26.3 4.9-51 3.8-65l-.9-11.5-.6 22.5zM524 357c-2.8 5.6-5.3 10-5.6 9.7-.3-.2 1.9-5 4.8-10.5s5.4-9.9 5.6-9.7c.2.2-2 4.9-4.8 10.5zM115.3 237c7.8 14.2 25.2 35 32.6 38.8 7.1 3.7 8.5 4.6 14.9 9.5 3.4 2.7 6.2 4.7 6.2 4.4 0-.9-22.5-20.2-23.3-19.9-.5.1-.6-.2-.2-.8.3-.6-.4-1.4-1.7-1.9-1.3-.6-1.9-1-1.4-1 .4-.1-1.1-2-3.4-4.4-4-3.9-18-19.9-24.3-27.7-2.7-3.3-2.6-3 .6 3zM461.1 241.5c2.3 4.9 5.4 12.6 7 17 2.4 6.9 2.8 7.5 2.7 4.2-.1-2.1-.5-4-1-4.3-.4-.3-.8-1.3-.8-2.4 0-1.9-7.9-18.2-10.4-21.5-.9-1.1.3 2 2.5 7zM352.3 234.7c.9.2 2.3.2 3 0 .6-.3-.1-.5-1.8-.5-1.6 0-2.2.2-1.2.5zM343.3 235.7c.9.2 2.3.2 3 0 .6-.3-.1-.5-1.8-.5-1.6 0-2.2.2-1.2.5zM309.8 239.7c1.7.2 4.7.2 6.5 0 1.7-.2.3-.4-3.3-.4-3.6 0-5 .2-3.2.4zM472 255.5c-.7.9-1.1 1.7-.9 2 .3.2 1-.5 1.7-1.5 1.4-2.4 1-2.6-.8-.5zM66 255.5c0 .5.5 1.7 1 2.5s1 1 1 .5c0-.6-.5-1.7-1-2.5s-1-1.1-1-.5zM482 276.2c-2.5 4.1-2.5 6.5-.2 10l1.8 2.7V284c0-3.8.5-5.3 1.9-6.4 1.1-.8 1.6-1.8 1.2-2.2-.4-.5-1.2-.2-1.7.6-.7 1.1-1 1.1-1 .2 0-2.2 3.2-2.6 6.4-.8l3.1 1.8-1.9-2.1c-3-3.3-7.2-2.8-9.6 1.1zM473.4 276c.3 1.4 3.1 14.7 6.1 29.6 4.7 23.6 8.5 50.6 9.8 69.9.2 2.7.2-4.7.1-16.5l-.2-21.5 2.3 6c3.1 7.7 3.1 6.4.1-3.9-1.3-4.4-3.2-12.5-4.1-17.9-1.2-6.8-2.2-9.7-3-9.3-.8.3-1.9-2.8-3.5-9.7-2.7-12.2-6.9-28-7.7-28.7-.3-.3-.3.6.1 2zM183.5 279.5c5.4 4.6 24.8 16.6 34.1 21 25.9 12.4 53.8 18.5 83.4 18.4 18.2-.1 24.5-1.2 13-2.2-4.1-.4-8.6-1-10-1.3-2-.4-2.2-.3-1 .5 2.5 1.8-11 1.3-26-.9-32.2-4.7-58.3-14.3-86.5-31.8-5.5-3.4-8.6-5.1-7-3.7zM256 285.3c0 .3 1.2 1.2 2.6 2.2 1.5.9 2.3 1.2 2 .6-.7-1.1-4.6-3.5-4.6-2.8zM173.3 293.2l3.8 3.4-3.1 2.2c-4.3 3.2-3.7 4.6.6 1.7 2-1.4 4.4-2.6 5.3-2.6 4-.3 4.5-.5 4.9-1.8.4-1.1-.3-1.2-3.2-.7-3.2.6-4.3.3-7.9-2.4l-4.2-3.2 3.8 3.4zM485.1 297.1c-.1.4 1.3 4 3.1 8 1.7 4.1 5.3 13.5 7.9 20.9l4.7 13.5-.5-7c-.3-4.8-1-7.5-2.2-8.5-.9-.8-2.9-4.7-4.4-8.5-3.4-8.4-8.5-19.2-8.6-18.4zM399.4 300.6c-5.9 2.9-18.9 14.1-23.8 20.5l-4.8 6.4 6.6-7.2c5.7-6.1 17.1-15.5 24.2-20 2.7-1.7 1.5-1.5-2.2.3zM503.2 301.7c-.1 1.8-.2 3.5-.3 3.8 0 .2-.9 3.6-2 7.5-1.2 4.5-1.6 7.7-1.1 8.7 1.2 2 4.5-14.9 3.9-19.7l-.4-3.5-.1 3.2zM186 302.4c0 .2.8 1 1.8 1.7 1.5 1.3 1.6 1.2.3-.4s-2.1-2.1-2.1-1.3zM202.7 305.1c.7.7 1.5 1 1.8.7.3-.3-.2-.9-1.2-1.2-1.4-.6-1.5-.5-.6.5z"/><path d="M215.6 311c5.6 2.7 11.4 5.2 13 5.4 1.6.2 5.7 1.1 9.1 2 8.9 2.3 24.8 4.6 31.3 4.5 5.9-.2 5.3-.3-8.5-2-12.2-1.4-26.8-5-40-9.7-15.9-5.7-16-5.7-4.9-.2zM484.1 309.6c0 1.1.3 1.4.6.6.3-.7.2-1.6-.1-1.9-.3-.4-.6.2-.5 1.3zM105 316c.6 1.1 1.3 2 1.6 2 .2 0 0-.9-.6-2s-1.3-2-1.6-2c-.2 0 0 .9.6 2zM298.8 314.7c.7.3 1.6.2 1.9-.1.4-.3-.2-.6-1.3-.5-1.1 0-1.4.3-.6.6zM107.6 320c.4.8 4.6 6.9 9.3 13.5 4.6 6.6 10.3 15 12.7 18.6 4.6 7.2 26.6 36.5 31.1 41.4 3.5 3.8 2.8 2.6-2.9-5-2.5-3.3-6.4-8.9-8.8-12.5-2.4-3.6-5.5-7.7-6.9-9.3-1.3-1.5-2.1-2.7-1.6-2.7s2.9 2.2 5.4 4.8c4.8 5.1 13.9 12.9 20.6 17.7 2.5 1.8 1.7.8-2-2.5-17.9-15.9-37.3-37.3-49.5-54.6-5.9-8.5-9.4-12.8-7.4-9.4zM100 323c.6 1.1 1.3 2 1.6 2 .2 0 0-.9-.6-2s-1.3-2-1.6-2c-.2 0 0 .9.6 2z"/><path d="M73 322.4c0 1.3 8 15.8 17.1 31.1 8.5 14.4 25.4 38.1 38.7 54.4 9.2 11.3 37.1 40.3 38.1 39.7.4-.3 5.4 4.1 11.1 9.6 11.2 10.7 11 11.1-1.2 2.3-4.3-3.1-7.8-5.4-7.8-5.1 0 .6 19.9 15 22.8 16.5 1.3.7 2.1 1.5 1.8 1.8-.2.3-2.9-.8-5.8-2.5-2.9-1.6-8-4.4-11.3-6.2-3.3-1.8-7.8-4.5-10-6-5.1-3.4-7.3-4.6-6-3.3 2.1 2 27.4 19.9 38 26.9 9.9 6.4 40.4 23.4 42 23.4.4 0 2.1.6 3.8 1.4 1.8.7 4.8 1.8 6.7 2.4 2.5.7 2.9 1 1.3 1.1-1.2.1-4.7-.8-7.7-2-3.1-1.1-6-1.8-6.5-1.5-.5.3-2 .1-3.3-.4-2.1-.9-2-1 .7-.4 4.4.9 3.2.1-9.5-5.4-6.3-2.8-16.1-7.1-21.8-9.6-5.6-2.5-10-4.1-9.7-3.5 1 1.6-.6 1-6.3-2.2-3-1.7-5.6-2.8-5.8-2.6-.9.9 31.4 16.6 45.1 22 7.7 3 14.7 5.7 15.5 6.1.8.3-3.4.3-9.5 0-12.6-.7-26.6-3.1-37.7-6.7-4.3-1.4-7.8-2.3-7.8-2.1 0 .8 10.1 5.5 12.8 5.9 1.5.2 5.2 1.1 8.2 1.9 3 .9 12 1.9 20 2.3 13.7.8 14.5.9 14.2 2.8-.6 3.7-8.4 19.9-14.9 30.9-3.5 5.9-6.2 11-5.9 11.3 1.6 1.6 4.2-2.6 14.1-22.3 6-12.1 11.1-22.1 11.2-22.3.1-.2 3 2.2 6.4 5.2 9.3 8.5 27.1 16.9 34.8 16.6 2.1-.1 2.2-.2.6-.6-12-2.9-25.9-9.3-33.8-15.8-5.3-4.3-7.3-7-4.4-6 1.6.6 4.1-1 3.3-2.3-.3-.5-2.5-1.4-4.8-2-3.5-.9-5.4-2.4-10-7.9-3.2-3.7-5.5-6.9-5-7.2 1.2-.9 1.4-4.1.2-4.1-.5 0-1 1-1 2.1 0 1.7-2.5-.4-10.3-8.6-5.6-6-14.5-14.4-19.7-18.7-5.2-4.4-9.5-8.2-9.5-8.6 0-.4-.4-1.3-.8-2-.5-.7-.3-1.2.4-1.2s-.5-1.8-2.6-4c-3.4-3.5-4.1-3.8-4.7-2.3-.4 1.2-.7.3-.7-2.3-.1-2.3-.4-5.7-.7-7.5l-.7-3.4 3.9 4.4c3.7 4.3 11.7 10.1 13.8 10.1.6 0 0-1-1.4-2.1l-2.5-2 3 1.4c3.9 1.9 9.9 3.2 9.2 2-.3-.5.8-.8 2.6-.6 3.1.4 3 .3-1.3-2-9.2-4.9-18-21-18-33 0-10.9 7.5-21.2 19.4-27 7.1-3.5 18.5-7 14.2-4.4-4.6 2.8-9 7.5-10.7 11.2-2.3 5-2.5 16.2-.4 23.1 3.4 11.5 14.8 24.8 25.9 30.3 6.7 3.3 10.6 4.2 6.9 1.6-3.8-2.6-8-13.5-5.3-13.5.6 0 1-.5 1-1.1 0-.5-.6-.7-1.2-.3-1 .5-1 .4-.2-.5s2-.8 4.9.5c4.6 1.9 8.5 1.3 13.6-2 5.2-3.5 7.4-8.6 6-14.1-1.4-5.7-1.5-5.5 1.4-5.5 1.5 0 2.5.6 2.5 1.4 0 .8.5 1.6 1.1 1.8.5.2 1.1 1 1.2 1.8.2.8 1.5 3.6 3 6.2 2.1 3.5 2.6 5.3 2.1 7.5-1 4-3.1 7.9-5.7 10.4-3 2.9-11.8 7-13.8 6.4-.9-.3-2.9.1-4.5 1l-2.9 1.5h5.5c3.2 0 7.2-.8 9.5-1.9 4.9-2.2 12.2-10 13-13.8.4-1.5.8-3.7 1-4.7.7-3.3-1.3-11.8-4.2-17.9l-2.7-5.7-2.1 2c-2.5 2.3-5.1 1.8-6-1.1-.7-2.2 1-4.9 3.1-4.9.8 0 1.4-.5 1.4-1 0-1.5-13.1-14.5-17.2-17.1-2.9-1.8-3-2-.8-1.6 2.3.5 2.3.4-.8-2.2-2.3-2-2.9-3-2-3.4 2-.7-1.7-3.3-7.7-5.4-7.2-2.5-21.2-2.2-30.6.7-7.7 2.3-12.2 4.7-11.4 6 .3.5 0 1.2-.6 1.6-.8.4-.9.3-.5-.4s.3-1.2-.2-1.2c-.6 0-3.4 2.8-6.3 6.1-7.9 8.9-16.8 17.6-21.6 21-7.8 5.5-4.1 4.5 4.2-1.1 4.5-3 7.5-4.3 7.5-3.2 0 1.7-2.8 11-3.9 12.9-.6 1.2-2.9 4.2-5 6.7l-3.9 4.4-6.3-8.4c-3.5-4.7-6.3-9.3-6.3-10.4.1-1.1-.2-1.7-.6-1.5-.4.3-1.1-.6-1.4-2-.4-1.4-1.1-2.5-1.6-2.5s-.7-.7-.3-1.5c.5-1.4.8-1.4 2.7.2 1.7 1.4 1.6 1.2-.3-.9-1.3-1.5-2.9-2.5-3.5-2.1-.6.3-.8.3-.4-.2.4-.4-2.7-4.7-7-9.5-4.2-4.8-8.6-9.8-9.7-11.1-10.2-12.6-15.1-18.9-19.4-25.3-2.9-4.2-5.4-7.6-5.7-7.6-.6 0 .5 1.6 12.3 19.7 5.2 7.9 9.8 14.2 10.5 14 .6-.1 1.3.4 1.6 1.2.3 1 0 1.1-.9.5-1.1-.6-1.2-.5-.3.7.6.8 4.4 5.9 8.4 11.4 10.7 14.7 30.8 40.3 32.3 41.1.6.4.1-.5-1.3-2l-2.5-2.8 3.5-2.9c1.9-1.6 3.9-2.9 4.5-2.9.6 0 1.9 3.3 2.8 7.2 1.9 8.2 3.3 22.5 1.8 19.3-.4-1.1-.7-2.3-.5-2.6.2-.4-.6-1.5-1.9-2.5l-2.2-1.9 2 2.4c3 3.6.3 2.3-9.8-4.8-4.8-3.3-8.7-5.6-8.7-5.1s.9 1.4 2.1 2c2.9 1.6 6.9 5.2 6.9 6.2 0 .5-3-1.7-6.7-4.8-8.7-7.2-9.5-8.1-5.8-5.9l3 1.8-3-2.6c-3.1-2.7-5.1-3.5-3.9-1.5.4.7.3.8-.4.4s-1.2-1.3-1.2-2c0-1.5-6.5-6.8-7.3-6-.9.9-22.8-21.9-32.6-34.1-14.4-17.8-17.5-22.3-29.3-42-6-9.9-10.8-17.6-10.8-17.1zm64.5 53.6c1 1.1 1.3 2 .7 2-.6 0-1.6-.9-2.2-2-.6-1.1-.9-2-.7-2 .2 0 1.2.9 2.2 2zm113.6 4.4c5.1 2.4 9.9 7.4 9.9 10.2 0 6.7-9.6 8.7-16.8 3.4-2.3-1.6-4.8-4.3-5.7-5.9-1.6-3.2-2-8.2-.7-9.5 1.1-1.2 9.3-.1 13.3 1.8zm-61.8 11.8c-4.1 6.2-5.1 7.3-3.3 3.8 1.4-2.8 5.9-9 6.5-9 .2 0-1.2 2.4-3.2 5.2zm2.7 1.5c0 .5-1 1.9-2.1 3.3l-2 2.5 1.6-3.3c1.5-3 2.5-4.1 2.5-2.5zm-7.3 12.5c-.3.8-.6.5-.6-.6-.1-1.1.2-1.7.5-1.3.3.3.4 1.2.1 1.9zm44.7 4.4c2 1.9 2.1 5.4.2 5.4-2.3 0-4.8-4.1-3.4-5.7 1.3-1.6 1.3-1.6 3.2.3zM152 420.7c0 .8-3.8-1.7-5.1-3.3-.9-1.1-.2-.9 1.9.6 1.7 1.3 3.2 2.5 3.2 2.7zm77.4-2.1c1.9 1.8 2.1 4.4.4 4.4-1.6 0-4.8-3.1-4.8-4.7 0-1.8 2.5-1.7 4.4.3zM196 433c1.2 1.6 1.9 3 1.6 3-.2 0-1.4-1.4-2.6-3-1.2-1.7-1.9-3-1.6-3 .2 0 1.4 1.3 2.6 3zm-18.9 6.7c2.2 2.5 2.4 2.9.7 1.4-1.6-1.4-2.8-2.1-2.8-1.7 0 .5-.7.3-1.5-.4-1.6-1.3-2-3-.7-3 .4 0 2.4 1.7 4.3 3.7zm-6.9 3.9c2.3 2 9 7 14.8 11 9.1 6.3 20 14.9 36.6 29.1 6.3 5.3 17.4 16.4 18.5 18.6 1.3 2.3-12.4-4.4-15.5-7.7-1.1-1.2-7.5-5.5-14.1-9.6-6.6-4-13.1-7.9-14.3-8.7-1.3-.8-2.1-1.7-1.8-2 .3-.3 1.2 0 2.1.7.9.7 1.7 1.1 2 .8.2-.2-4.1-4.9-9.7-10.3-10.4-10.4-24.4-25.5-23.5-25.5.3 0 2.5 1.6 4.9 3.6zm-4.1 2.1c1.3 1.6 1.2 1.7-.3.4-1.7-1.3-2.2-2.1-1.4-2.1.2 0 1 .8 1.7 1.7zm48.8 50.7c18.4 8.1 23.8 11.3 9.5 5.6-7.5-2.9-31.2-14.3-28.8-13.7.7.1 9.3 3.8 19.3 8.1z"/><path d="M103.7 329.1c1 1.7 2.4 3.6 3.2 4.2.8.7.2-.7-1.4-3.1-3.2-4.9-4.5-5.7-1.8-1.1zM512.2 342.5c-3 6.2-2.7 7.1.4 1.2 1.4-2.7 2.4-5.1 2.2-5.3-.3-.2-1.4 1.7-2.6 4.1zM503.2 347c0 .8.4 2.6.8 4 .6 2 .8 2.1.8.5 0-1.1-.3-2.9-.8-4-.5-1.2-.8-1.4-.8-.5zM494.2 351c0 .8.6 3.1 1.3 5 .7 1.9 1.3 2.8 1.3 2 0-.8-.6-3.1-1.3-5-.7-1.9-1.3-2.8-1.3-2zM507.4 352.4c-.3 1.4-1 2.3-1.5 2-.5-.3-.9.2-.9 1.1 0 .9.5 1.3 1.1 1 1.2-.8 3.2-5.6 2.5-6.3-.3-.2-.8.7-1.2 2.2zM139.1 353.6c0 1.1.3 1.4.6.6.3-.7.2-1.6-.1-1.9-.3-.4-.6.2-.5 1.3zM41.1 359.6c0 1.1.3 1.4.6.6.3-.7.2-1.6-.1-1.9-.3-.4-.6.2-.5 1.3zM497.5 362.9c.4 2.6-.5 5.1-3.8 11.5l-4.4 8.1-.7 19.5c-.4 10.7-.9 20.8-1.1 22.5-.2 1.6-.7 5.7-1 9-1.8 16.5-9.3 52.1-12.2 57.8-.8 1.6-1.3 3-1.1 3.2.3.4 6-8.7 11.9-19 2.8-4.9 1.5-4-1.8 1.2-1.9 3.1-2.2 3.3-1.8 1.2.4-1.4.8-3.4 1-4.5.2-1 .4-1.9.5-1.9.1 0 .3-1.3.5-2.8 1.2-8.8 10.9-42.5 13.5-46.6.7-1.2 1.4-1.3 3.3-.4 2.2 1 2.6.9 3-.8.3-1 .2-1.9-.2-1.9-1 0-7-6-8.1-8-.6-1.2.4-3 4-7 4.2-4.7 4.9-6.1 4.8-9.5l-.1-4-.6 4.3c-.5 2.9-1.8 5.4-3.9 7.5l-3.2 3.2v-15.7c0-11.9.4-16.7 1.6-19.7 1.2-3 1.3-4.6.5-7.2l-1.1-3.4.5 3.4zM217.4 362c-6.8 1-14.9 3.7-20.1 6.7-6.4 3.6-5.2 3.6 3-.1 12.3-5.7 23-7.2 34.9-5.2 7.9 1.4 7.8.3 0-1.3-5.8-1.2-10.1-1.2-17.8-.1zM42.6 365c1 5.7 9 32.7 12.8 43.2 6.7 18.4 17.3 39.9 26.6 53.8 9.9 14.8 16.8 24.1 22.4 29.8 6.4 6.6 28 24.6 33.1 27.6l3 1.8-3-2.3c-29-22.9-48.4-47.4-67.6-85.4-10.7-21.3-14.9-31.7-22-54.4-5.6-17.5-6.1-19.1-5.3-14.1zM50 363.6c0 2.1 13.1 27.6 19.3 37.7 3.7 5.9 6.7 11.3 6.7 12 0 3.1 22.2 33.4 33.8 46.2 21.1 23.4 53.5 51.8 71.2 62.5 4.1 2.5 7.7 4.8 7.8 5.2.2.5 1.3.8 2.5.7 1.5 0 1.7-.2.7-.6-.8-.4-4.2-2.3-7.6-4.5-4.8-3-6.1-4.3-5.9-6.1.1-1.2 0-1.4-.2-.5-.5 2-1.2 2.2-3.1.9-1-.6-.8-1.6 1-4.7 1.2-2.1 2.6-4.1 3-4.2.5-.2.6-.8.2-1.3-.9-1.5 1.2-1 7.2 1.6 6.3 2.8 18.5 6.7 19.1 6.2.2-.2-2.7-1.4-6.3-2.6-11.4-3.7-25.4-10.1-33.8-15.3-47.5-29.4-81.8-67.3-108.3-119.7-4-8-7.3-14-7.3-13.5zm121.2 144.8c1.8 1.1 2.9 1.5 2.5.9-.4-.6 0-1.3.8-1.7.8-.3 1.5-.2 1.5.3 0 1.6-2.2 7.1-2.9 7.1-1 0-17.3-13.3-23.8-19.5l-5.8-5.5 12.3 8.2c6.8 4.6 13.7 9.2 15.4 10.2zM507.2 365.5c0 1.6.2 2.2.5 1.2.2-.9.2-2.3 0-3-.3-.6-.5.1-.5 1.8z"/><path d="M499.2 370.5c-.1 1.1.5 4.5 1.3 7.5.7 3 1.3 4.4 1.3 3 0-3.2-2.5-13.2-2.6-10.5zM508.2 371.5c0 1.6.2 2.2.5 1.2.2-.9.2-2.3 0-3-.3-.6-.5.1-.5 1.8zM512.9 371.7c-2.3 4.6-2.2 4.9.5 1.8 2.6-3.1 3.2-4.5 1.8-4.5-.5 0-1.5 1.2-2.3 2.7z"/><path d="M512.9 378.2l-2.4 5.2-.6-4.5-.6-4.4-.1 5.7c-.1 3.2 0 5.8.2 5.8.3 0 2-2.9 3.9-6.5s3.1-6.5 2.8-6.5c-.4 0-1.8 2.3-3.2 5.2zM502.2 387c0 1.9.2 2.7.5 1.7.2-.9.2-2.5 0-3.5-.3-.9-.5-.1-.5 1.8zM556.2 386.8c-.3 2.2-14.2 36.5-18 44.3l-3.7 7.7 7 1.6c8 1.9 10.9 2 5.1.3l-3.9-1.2 2.5-3c1.4-1.7 4.6-6.6 7.2-11 4.3-7.4 4.6-8.4 4.6-15v-7l-8.5 15.3c-13.1 23.6-14.8 25.5-5.7 6.1 10.3-21.7 14.4-32.4 13.9-36.1-.2-1.8-.5-2.7-.5-2zM109 398.4c0 .2.8 1 1.8 1.7 1.5 1.3 1.6 1.2.3-.4s-2.1-2.1-2.1-1.3zM115.5 406c1 1.1 2 2 2.3 2 .3 0-.3-.9-1.3-2s-2-2-2.3-2c-.3 0 .3.9 1.3 2zM130.5 421c6.6 6.6 12.2 12 12.5 12 .2 0-4.9-5.4-11.5-12s-12.2-12-12.5-12c-.2 0 4.9 5.4 11.5 12zM166.5 425c6 6 11.2 11 11.5 11 .2 0-4.5-5-10.5-11-6-6.1-11.2-11-11.5-11-.2 0 4.5 4.9 10.5 11zM46.1 415.5c0 .5.6 2.1 1.4 3.5.8 1.4 1.4 2 1.4 1.5 0-.6-.6-2.1-1.4-3.5-.8-1.4-1.4-2.1-1.4-1.5zM455.2 425c-2.5 12.1-6.4 22.5-13.3 35.3-11.6 21.3-23 38.2-35.8 52.6-4.1 4.6-6.4 7.8-5.2 7.2 2.7-1.5 7.9-.8 10 1.4 1.4 1.4 1.3 1.8-1.4 4-5.9 4.7-21 12.7-24.5 12.9-4.6.3-16.7 5.2-20.5 8.2-2.7 2.2-2.4 2.1 2.9-.6 3.2-1.6 6.6-3 7.5-3 .9 0 2.5-.6 3.6-1.4 1.1-.7 3.5-1.4 5.3-1.5 5.4-.3 7.1-.5 6.7-1-.2-.2 3.5-2.6 8.3-5.3 4.8-2.8 10.2-6.1 12-7.5l3.3-2.4 1.9 2.3c2.7 3.2 3.4 6.2 2 8.8-.6 1.2-.9 2.4-.6 2.7.3.3 1.5-1.5 2.7-3.9l2.1-4.5-3.6-3.6c-2-2.1-3.3-3.7-2.8-3.7s2.1 1.4 3.6 3c2.5 2.9 4.6 3.2 4.6.9 0-.6-.6-.7-1.2-.3-.7.5 0-.8 1.5-2.7 7.6-9.2 25.8-43.5 30.5-57.4 6.5-19 8.2-25.7 8.7-34.6.4-5.2.4-9.1.1-8.8-.3.3-1.9 5.2-3.6 11-3.4 11.6-10.1 31.1-10.5 30.7-.2-.2.7-5 2-10.8 3.6-16.5 5.7-29.4 5.3-32.1-.2-1.5-.8-.1-1.6 4.1zm-41.8 94.5c1.1.8 1.6 1.5 1 1.5-.5 0-1.8-.7-2.8-1.5-1.1-.8-1.6-1.5-1-1.5.5 0 1.8.7 2.8 1.5zM386.7 422.7c-1 .9-.9 9.1.1 9.7.5.3.8-1.4.8-3.7-.1-4.4 1.2-5.9 2.9-3.3 1 1.7-.8 12.5-2.3 13.5-.5.3-1.7 2.2-2.7 4.1-1.5 3-1.6 3.3-.2 2.2 5-4.2 8.7-18.8 5.5-22-1.3-1.3-3.1-1.6-4.1-.5zM508 423.8c0 1.3 13.8 10.7 14.6 9.9.3-.2-1.9-1.9-4.8-3.7-2.9-1.9-6.3-4.3-7.5-5.4-1.3-1.1-2.3-1.4-2.3-.8zM176 429.4c0 .2.8 1 1.8 1.7 1.5 1.3 1.6 1.2.3-.4s-2.1-2.1-2.1-1.3zM147 436.5c1.9 1.9 3.6 3.5 3.9 3.5.3 0-1-1.6-2.9-3.5s-3.6-3.5-3.9-3.5c-.3 0 1 1.6 2.9 3.5z"/><path d="M554 437.8c-3.5 5.2-3.5 5.2-.1 5.2 3 0 3.1-.1 3.1-4.5 0-2.5-.1-4.5-.2-4.5-.2 0-1.4 1.7-2.8 3.8zM387.1 436.6c0 1.1.3 1.4.6.6.3-.7.2-1.6-.1-1.9-.3-.4-.6.2-.5 1.3zM152.4 440.8c.8 1.4 15.6 13.5 15.6 12.9 0-.3-3.7-3.6-8.2-7.3-4.4-3.7-7.8-6.2-7.4-5.6zM497.2 446.7c-1.5 4.8-.8 5.5.8.8.7-2 1-3.8.8-4.1-.3-.2-1 1.3-1.6 3.3zM555.8 448.9c-.6 2-.9 2.2-2.2 1.2-1.3-1.1-1.7-.9-2.8 1.3-.6 1.5-1.7 2.5-2.4 2.2-.8-.3-1.1.1-.7 1 .4 1 0 1.2-1.3.7-1.7-.6-1.7-.5-.5 1s1.2 1.7-.3 1.1c-1.1-.4-1.6-.1-1.6 1.1 0 1 .5 1.3 1.2.9s.8-.3.4.5c-.9 1.4-2.6.5-2.6-1.5 0-2.2-1.7-.8-2.4 1.9-.3 1.3-4.4 8.5-9.1 16-4.7 7.4-8.5 13.9-8.5 14.2 0 .4-1.2 2.1-2.6 3.8-1.7 2-2.2 3.3-1.5 3.5.7.2 1.9-.4 2.6-1.4.8-1.1 1.5-1.6 1.5-1.3 0 1.3-4.8 6.8-5.5 6.1-.5-.4-.5-.2-.2.4.6 1.1-4 7.8-12.1 17.3-2.4 2.8-4.2 5.1-3.9 5.1.8 0 15.7-17.7 20.6-24.3 2.3-3.1 3.9-6.2 3.6-6.7-.4-.6-.1-.9.6-.8.9.2 13.3-16 29.5-38.9.9-1.2 1.4-3.2 1.2-4.5l-.3-2.3-.7 2.4zm-3.9 5.9c-1.3 1.6-3.2 4.4-4.2 6.2-1 1.8-2 3-2.4 2.7-.3-.3.2-1.3 1.1-2.2.9-.9 1.6-2.2 1.6-2.9 0-.7.9-2.3 2-3.6 1.1-1.3 2-3 2-3.9 0-1.1.3-1.2 1.1-.4.9.9.6 1.9-1.2 4.1zM87.5 459c3.3 6 13.8 20.1 21.3 28.5 8.4 9.3 25.2 26.2 22.3 22.2-2.1-2.7-.7-2.1 6.1 2.7 6.9 4.9 24.2 13.6 26.7 13.6.9 0-.9-1.1-4-2.3-22.3-9.2-47.4-30.3-63.9-53.7-7.2-10.3-10.2-14.1-8.5-11zM129 465.4c0 .2.8 1 1.8 1.7 1.5 1.3 1.6 1.2.3-.4s-2.1-2.1-2.1-1.3zM336 466.9c0 .5.5 1.3 1.1 1.6 1.5 1 10 .8 12.8-.3 1.8-.6.9-.8-3.5-.8-3.3.1-6.9-.3-8.1-.7-1.4-.5-2.3-.4-2.3.2zM493.6 470.5c-.9 2.6-.7 3.2.5 1.2.6-1 .9-2.1.6-2.3-.2-.3-.7.2-1.1 1.1zM466.5 487.2c-6.1 21.4-11.9 37.4-18.8 51.8-3.6 7.4-6.5 13.5-6.4 13.6.1.1 1.1.4 2.3.8 1.7.5 2.4-.1 4-3.6 1-2.3 1.8-4.6 1.6-5.1-.1-.4.5-2.1 1.3-3.7s1.6-3.7 1.8-4.7c.7-3.5 6.1-20.1 11.3-34.5 5-14 8.3-26.3 7.2-27.4-.3-.2-2.2 5.5-4.3 12.8zM145.7 479.1c1.2 1.5 7.3 5.3 7.3 4.6 0-.2-1.9-1.7-4.2-3.2-2.4-1.6-3.8-2.2-3.1-1.4zM487.7 483.5c-.9 1.9-1.5 3.5-1.2 3.5.7 0 3.7-6.1 3.3-6.6-.3-.2-1.2 1.2-2.1 3.1zM229.2 484c0 1.4.2 1.9.5 1.2.2-.6.2-1.8 0-2.5-.3-.6-.5-.1-.5 1.3zM159 487.4c0 .3 1.4 1.2 3 2.1 1.7.9 3 1.3 3 1.1 0-.3-1.3-1.2-3-2.1-1.6-.9-3-1.3-3-1.1zM80 495.4c0 .2.8 1 1.8 1.7 1.5 1.3 1.6 1.2.3-.4s-2.1-2.1-2.1-1.3zM83 499.4c0 .2.8 1 1.8 1.7 1.5 1.3 1.6 1.2.3-.4s-2.1-2.1-2.1-1.3zM14 500.4c0 .2.8 1 1.8 1.7 1.5 1.3 1.6 1.2.3-.4s-2.1-2.1-2.1-1.3zM90 508c2.3 2.7 4.4 5 4.7 5 .3 0-1.4-2.3-3.7-5-2.3-2.8-4.4-5-4.7-5-.3 0 1.4 2.2 3.7 5zM19 506.4c0 .2.8 1 1.8 1.7 1.5 1.3 1.6 1.2.3-.4s-2.1-2.1-2.1-1.3zM208 511.8c1.9 1.1 4.6 2.2 6 2.6 1.8.5 1.5.1-1-1.2-1.9-1.1-4.6-2.2-6-2.6-1.8-.5-1.5-.1 1 1.2zM95 514.3c0 .2 1.5 1.6 3.3 3.3l3.2 2.9-2.9-3.3c-2.8-3-3.6-3.7-3.6-2.9zM136 515.4c0 .2.8 1 1.8 1.7 1.5 1.3 1.6 1.2.3-.4s-2.1-2.1-2.1-1.3zM217 515.4c0 .2.7.7 1.6 1 .8.3 1.2.2.9-.4-.6-1-2.5-1.4-2.5-.6zM221.5 517.8c.6.5 2.4 1.2 4 1.6 3.4.7 1.5-.7-2.5-1.9-1.6-.5-2.2-.4-1.5.3zM123 519.4c0 .2.7.7 1.6 1 .8.3 1.2.2.9-.4-.6-1-2.5-1.4-2.5-.6zM141 521.4c0 .5 6.9 4.6 7.8 4.6.3 0-.9-1.1-2.8-2.5-3.1-2.3-5-3.1-5-2.1zM104 522.4c0 .2.8 1 1.8 1.7 1.5 1.3 1.6 1.2.3-.4s-2.1-2.1-2.1-1.3zM394.4 523.6c-1.8 1.4-1.8 1.5.4.4 1.2-.6 2.2-1.3 2.2-1.5 0-.8-.5-.6-2.6 1.1zM460.4 532.2c-2.1 4-4.9 10.8-6.5 15l-2.7 7.7 3.1 1c3.8 1.4 6.8 1.5 4.8.2-.8-.5-.9-1-.2-1.2.7-.3.8-2.1.2-5.7-1.3-8.3-.7-11 4.6-21.5.7-1.5 1.1-2.7.8-2.7-.2 0-2.1 3.3-4.1 7.2zM498.4 527.2l-1.9 2.3 2.3-1.9c1.2-1.1 2.2-2.1 2.2-2.3 0-.8-.8-.2-2.6 1.9zM166.5 526.9c1 1.6-6.2 8.7-15.9 15.8-14.8 10.7-14.4 11.3.6 1 4.9-3.2 11-8.3 13.6-11.2 4-4.4 5.1-5.1 7-4.4 1.2.5 2.2 1.1 2.2 1.3 0 1.5-5.2 13.9-8.1 19.6-1.9 3.6-3.5 6.8-3.7 7.2-.2.5 1.4.8 3.5.8 3.9 0 3.9 0 6.5-6.8 2.4-6.2 3.4-9.8 5.3-18.5.3-1.6 1.2-2.7 2.3-2.8 1.2 0 1-.3-.8-1.1-3.4-1.4-13.3-2.1-12.5-.9z"/><path d="M169.5 534.2c-1.6 2.8-6.8 9.1-11.5 14-8.5 8.9-10.9 12-3.8 5.1 2.1-2 3.8-3.2 3.8-2.6 0 .7-.4 1.5-1 1.8-1.5.9-3.2 4.5-2.2 4.5 1.4 0 18.9-26.7 18.1-27.5-.2-.2-1.7 2-3.4 4.7zM371 530c-2 .6-2.1.8-.5.8 1.1 0 3.1-.4 4.5-.8 2-.6 2.1-.8.5-.8-1.1 0-3.1.4-4.5.8zM364.8 531.7c.6.2 1.8.2 2.5 0 .6-.3.1-.5-1.3-.5-1.4 0-1.9.2-1.2.5zM359.8 532.7c.7.3 1.6.2 1.9-.1.4-.3-.2-.6-1.3-.5-1.1 0-1.4.3-.6.6zM352.8 533.7c1.2.2 3 .2 4 0 .9-.3-.1-.5-2.3-.4-2.2 0-3 .2-1.7.4zM295.5 535c4.3 1 34.3 2.6 33.5 1.8-.3-.3-6.3-.8-13.5-1.2-7.1-.3-15.5-.8-18.5-1.1-5.1-.4-5.2-.4-1.5.5zM340.3 534.7c.9.2 2.3.2 3 0 .6-.3-.1-.5-1.8-.5-1.6 0-2.2.2-1.2.5zM345.8 534.7c.7.3 1.6.2 1.9-.1.4-.3-.2-.6-1.3-.5-1.1 0-1.4.3-.6.6zM330.8 535.7c.7.3 1.6.2 1.9-.1.4-.3-.2-.6-1.3-.5-1.1 0-1.4.3-.6.6zM414 542c-.6 1.1-.8 2-.6 2 .3 0 1-.9 1.6-2 .6-1.1.8-2 .6-2-.3 0-1 .9-1.6 2zM372.6 549l-8.1 8h4.7c5.5 0 7.8-.7 7.8-2.5 0-.7.9-1.5 2.1-1.8 1.8-.5 1.9-.8.8-2.9-1.1-2.1-1.1-2.2.4-1 1.3 1.1 1.7 1 2.7-.7.6-1.2.8-2.1.4-2.1s.1-1 1.2-2.1c1.9-2.2 1.9-2.2-.4-.8-1.2.8-2 1.9-1.8 2.5.2.6 0 1.7-.6 2.5-.8 1.1-.9 1.1-.4-.3.7-2.3-1.4-3.5-2.6-1.4-.5.9-1.4 1.6-2.1 1.6-.7-.1.6-1.6 2.8-3.5 2.2-1.9 3.4-3.5 2.6-3.5-.7 0-5 3.6-9.5 8zm4.4.5c.4-.3 1.4.3 2.1 1.2 1.2 1.5 1.2 1.6-.1.8-2.2-1.4-5-1.6-5-.5 0 .6-.5 1-1.2 1-.6 0-.3-.9.8-2.1 1-1.1 2-1.6 2.2-1 .2.6.7.9 1.2.6zM407.2 551c-3 3.3-4.7 6-3.9 6 .8 0 3.3-2.7 5.6-6s4.1-6 3.9-6c-.2 0-2.7 2.7-5.6 6zM206.1 552.1c-1.3 3.9-1.4 5.7-.2 4.4.9-1 2.3-7.5 1.7-7.5-.2 0-.9 1.4-1.5 3.1zM356.9 553.6c-1.8 2-2.8 3.5-2 3.2 1.3-.4 6.9-6.8 5.9-6.8-.2 0-2 1.6-3.9 3.6zM346 554.5c-4.7 1.3-7.8 2.3-7 2.4 1.9.1 16-3.5 16.8-4.3.8-.9-.5-.6-9.8 1.9zM418.3 553.7c.9.2 2.3.2 3 0 .6-.3-.1-.5-1.8-.5-1.6 0-2.2.2-1.2.5zM409.5 555c-1.4.7-.8.8 2 .3 2.2-.3 4.2-.7 4.4-.9.9-.8-4.5-.2-6.4.6z"/></svg>